<svg width="35" height="60" viewBox="0 0 35 60" fill="none" xmlns="http://www.w3.org/2000/svg">
<path d="M0.983782 54.8787C-0.187791 56.0503 -0.187791 57.9497 0.983782 59.1213C2.15536 60.2929 4.05485 60.2929 5.22642 59.1213L0.983782 54.8787ZM32.1389 32.2088L34.2603 30.0875L30.0176 25.8449L27.8963 27.9662L32.1389 32.2088ZM5.22642 59.1213L32.1389 32.2088L27.8963 27.9662L0.983782 54.8787L5.22642 59.1213Z" fill="#F39A0D"/>
<path d="M5.12132 0.87868C3.94975 -0.292893 2.05025 -0.292893 0.87868 0.87868C-0.292893 2.05025 -0.292893 3.94975 0.87868 5.12132L5.12132 0.87868ZM27.7912 32.0338L29.9125 34.1551L34.1551 29.9125L32.0338 27.7912L27.7912 32.0338ZM0.87868 5.12132L27.7912 32.0338L32.0338 27.7912L5.12132 0.87868L0.87868 5.12132Z" fill="#F39A0D"/>
</svg>
